<svg width="425" height="150" viewBox="0 0 425 150" fill="none" xmlns="http://www.w3.org/2000/svg">
<path d="M65.8911 0.0685523C35.7483 2.50795 14.4669 17.0103 5.44265 41.2703C1.62829 51.4836 0.000200415 61.5092 0.000200415 74.8321C-0.0230579 88.9055 1.97716 99.8694 6.46602 110.485C16.095 133.244 36.2832 147.183 63.4722 149.783C67.9611 150.212 80.3113 149.971 84.4978 149.354C106.803 146.191 123.176 135.79 133.154 118.527C135.154 115.069 138.039 108.555 139.062 105.177C139.62 103.327 139.667 102.979 139.411 102.041C139.108 100.834 138.039 99.7086 136.992 99.4941C136.573 99.4137 133.131 99.3601 129.34 99.4137C122.758 99.4941 122.409 99.5209 121.781 100.057C121.316 100.459 120.758 101.692 119.711 104.507C117.106 111.691 114.338 116.624 110.082 121.69C104.849 127.936 98.918 132.145 91.4753 134.852C88.2889 136.031 83.079 137.265 79.3809 137.72C75.5433 138.203 66.9145 138.122 63.2629 137.586C44.726 134.825 31.7246 124.746 24.6075 107.59C22.1654 101.692 20.5838 95.5804 19.5837 87.9673C18.886 82.606 18.7232 71.3472 19.2349 65.5838C21.7468 38.2679 34.19 20.4147 55.076 14.2492C60.8673 12.5336 63.9839 12.1315 71.5894 12.1315C78.8693 12.1047 81.6138 12.3996 86.7771 13.7399C102.639 17.8145 114.268 29.2341 119.99 46.3099C121.525 50.867 120.804 50.5721 130.014 50.5721C137.015 50.5721 137.457 50.5453 138.178 50.036C138.946 49.4731 139.62 48.1327 139.62 47.0873C139.62 46.2027 137.852 41.163 136.317 37.7318C133.596 31.5931 130.177 26.2854 125.758 21.353C115.269 9.6385 101.383 2.85644 83.2186 0.577877C80.1252 0.175779 68.6589 -0.1459 65.8911 0.0685523Z" fill="#0E213F"/>
<path d="M244.748 29.6094C243.515 30.3064 242.887 31.5931 242.887 33.3892C242.887 36.1502 244.143 37.4369 246.888 37.4369C248.585 37.4369 249.609 36.874 250.33 35.5069C250.911 34.4078 250.935 32.5313 250.376 31.2714C249.562 29.395 246.608 28.5104 244.748 29.6094Z" fill="#0E213F"/>
<path d="M181.253 30.7621C179.043 31.0837 175.81 32.2364 174.042 33.3087C169.809 35.8553 167.135 39.7154 165.856 45.1304C165.135 48.1595 165.135 54.5931 165.856 57.649C168.181 67.4334 175.531 72.6875 186.23 72.205C193.533 71.8833 198.836 68.9078 202.069 63.3052C202.976 61.6968 204.511 57.1397 204.511 55.987V55.3973L200.301 55.4509L196.091 55.5313L195.556 57.2469C193.905 62.4474 190.44 65.0209 185.044 65.0477C179.159 65.0477 175.322 61.8041 174.019 55.6654C173.554 53.5208 173.624 48.6688 174.135 46.6852C175.112 42.9054 176.81 40.4392 179.462 39.0453C182.811 37.2492 187.695 37.3297 190.951 39.2329C193.161 40.5196 195.37 43.8169 195.812 46.4707L195.952 47.3553H200.255H204.557L204.395 46.2294C203.883 42.7178 202.371 39.501 199.952 36.7131C198.324 34.8635 197.696 34.3273 195.649 33.2014C191.347 30.8157 186.462 29.9847 181.253 30.7621Z" fill="#0E213F"/>
<path d="M278.24 37.7319V44.1922L277.31 43.254C275.263 41.1095 272.635 40.1176 268.937 40.1176C264.541 40.1176 261.517 41.458 258.819 44.5407C256.051 47.7039 254.982 50.9743 254.982 56.1748C254.982 61.2948 256.075 64.6993 258.68 67.7016C261.354 70.8112 264.68 72.2855 268.913 72.2855C272.565 72.2855 275.309 71.2401 277.31 69.1492L278.24 68.2109V69.8461V71.4813H282.194H286.148V51.3764V31.2715H282.194H278.24V37.7319ZM274.519 47.1142C276.356 48.106 277.426 49.2855 278.286 51.3228C279.031 53.0384 279.054 53.2529 279.054 56.2284C279.054 59.2575 279.031 59.3916 278.24 61.1876C277.31 63.2785 275.844 64.7529 273.937 65.5035C272.169 66.2004 268.774 66.12 266.983 65.3158C264.238 64.0827 262.54 61.2144 262.261 57.2202C261.889 52.2074 263.913 48.1328 267.401 46.8193C269.471 46.0419 272.751 46.1759 274.519 47.1142Z" fill="#0E213F"/>
<path d="M381.042 37.7319V44.1922L379.972 43.0932C377.902 41.0023 375.483 40.1176 371.738 40.1176C367.436 40.1176 364.156 41.5652 361.528 44.5943C358.9 47.6235 357.783 51.0815 357.783 56.2016C357.783 61.268 358.9 64.6993 361.505 67.7552C364.11 70.7844 367.505 72.2855 371.855 72.2855C375.343 72.2855 378.134 71.2401 380.111 69.1492L381.042 68.2109V69.8461V71.4813H384.996H388.95V51.3764V31.2715H384.996H381.042V37.7319ZM377.437 47.1678C379.251 48.1328 380.391 49.4463 381.205 51.4836C381.809 52.9848 381.856 53.3869 381.856 56.2016C381.856 59.1771 381.833 59.3648 381.088 61.1072C379.646 64.4848 377.251 65.986 373.367 65.9592C370.529 65.9324 368.854 65.2354 367.319 63.4394C365.691 61.5897 365.133 59.74 365.133 56.2016C365.133 52.5827 365.691 50.8135 367.436 48.803C369.087 46.8729 370.762 46.2563 373.832 46.3636C375.669 46.4172 376.274 46.578 377.437 47.1678Z" fill="#0E213F"/>
<path d="M300.103 40.4928C295.311 41.6723 292.265 44.621 291.613 48.7493L291.451 49.7679H295.056H298.661L299.103 48.7761C299.428 48.0791 299.917 47.543 300.707 47.0873C301.731 46.4707 302.08 46.4171 304.871 46.4171C307.708 46.4171 307.964 46.4707 309.22 47.1677C310.802 48.0523 311.499 49.3926 311.499 51.5371V52.8507L307.615 52.7702C301.475 52.6094 297.126 53.3332 294.311 54.9952C292.707 55.9334 291.916 56.7644 291.148 58.3996C290.544 59.6595 290.45 60.1421 290.381 62.5546C290.288 64.994 290.334 65.4229 290.846 66.7097C291.66 68.6933 292.427 69.6584 294.032 70.6502C297.661 72.8752 303.917 72.8484 308.15 70.5698C309.034 70.0873 310.174 69.2831 310.639 68.8006L311.499 67.9428V69.712V71.4812H315.337H319.198L319.128 59.74L319.058 48.0255L318.384 46.4707C317.174 43.7632 314.872 41.8868 311.383 40.7609C309.476 40.1712 302.219 39.9835 300.103 40.4928ZM310.081 58.2388L311.499 58.4264V60.4905C311.499 62.4742 311.476 62.5814 310.685 63.5197C308.941 65.5838 306.336 66.7097 303.243 66.7633C300.312 66.7901 298.777 65.9591 298.219 64.0558C297.637 61.9917 298.754 59.7936 300.824 59.0162C302.847 58.2388 307.057 57.8903 310.081 58.2388Z" fill="#0E213F"/>
<path d="M338.595 40.6269C336.665 41.2703 334.897 42.3694 333.688 43.6561L332.664 44.7552V42.8251V40.9218H328.827H324.989V56.2016V71.4813H328.827H332.664V62.3671C332.664 56.9253 332.757 52.7435 332.92 51.9393C333.478 48.9102 335.572 47.0873 338.781 46.8729C341.805 46.6584 343.968 47.7843 345.038 50.0897C345.573 51.2155 345.573 51.43 345.643 61.3484L345.712 71.4813H349.55H353.388L353.318 59.606L353.248 47.7575L352.643 46.2563C350.922 42.0209 347.736 40.0908 342.549 40.1444C340.851 40.1444 339.526 40.3053 338.595 40.6269Z" fill="#0E213F"/>
<path d="M404.416 40.5465C399.672 41.7528 395.811 45.0768 394.253 49.2318C393.136 52.2342 392.811 57.0594 393.485 60.437C394.741 66.5757 399.183 70.8379 405.533 72.0174C407.742 72.4463 412.231 72.2319 414.185 71.6421C420.907 69.5512 424.768 63.9218 424.768 56.2015C424.768 48.5349 420.976 42.8787 414.418 40.7878C412.394 40.1444 406.556 39.9836 404.416 40.5465ZM413.231 47.3286C415.557 48.6421 416.813 50.7062 417.348 54.1642C417.581 55.5314 417.581 56.3892 417.371 57.944C416.767 62.4743 414.511 65.1281 410.603 65.9055C407.673 66.4953 404.486 65.5302 402.765 63.5197C399.276 59.4988 399.742 50.9475 403.626 47.9719C405.393 46.6316 406.719 46.2563 409.347 46.3635C411.44 46.444 411.882 46.5512 413.231 47.3286Z" fill="#0E213F"/>
<path d="M208.744 52.3682C208.814 63.5465 208.837 63.8682 209.349 65.3425C210.907 69.846 213.814 71.9638 218.815 72.205C222.792 72.4195 226.118 71.24 228.42 68.8274L229.397 67.7819V69.6316V71.4812H233.351H237.305V56.2015V40.9217H233.351H229.397V50.7598C229.397 59.7668 229.351 60.7318 228.955 61.7237C227.769 64.726 223.955 66.3344 220.629 65.1817C218.885 64.592 217.954 63.761 217.256 62.1258L216.605 60.6514V50.7866V40.9217H212.628H208.674L208.744 52.3682Z" fill="#0E213F"/>
<path d="M242.887 56.2016V71.4813H246.725H250.562V56.2016V40.9218H246.725H242.887V56.2016Z" fill="#0E213F"/>
<path d="M187.765 87.592V93.7575L186.788 92.8461C184.416 90.6479 181.95 89.8706 177.996 90.0582C175.112 90.1922 173.321 90.7552 171.112 92.2563C168.716 93.8915 166.716 96.8939 165.739 100.406C165.204 102.336 165.088 107.161 165.507 109.466C166.553 115.122 169.995 119.224 174.856 120.671C176.601 121.181 180.95 121.207 182.578 120.698C184.253 120.189 185.648 119.385 186.788 118.232L187.765 117.267V118.768V120.269H191.602H195.44V100.834V81.3997H191.602H187.765V87.592ZM182.462 96.1701C186.695 97.2156 188.905 100.861 188.649 106.357C188.486 109.279 187.788 111.128 186.16 112.817C184.578 114.452 183.043 115.042 180.322 115.015C178.415 115.015 177.927 114.908 176.671 114.265C174.135 112.924 172.693 110.485 172.321 106.812C172.135 105.097 172.484 102.443 173.089 100.808C174.508 97.1083 178.392 95.1783 182.462 96.1701Z" fill="#0E213F"/>
<path d="M248.004 100.834V120.269H252.074H256.144L256.191 105.686L256.261 91.1037L261.61 105.633L266.96 120.135L270.797 120.216L274.658 120.269L280.101 105.472L285.566 90.6748L285.636 105.472L285.683 120.269H289.636H293.59V100.834V81.3997H287.473H281.356L276.123 95.9825C273.263 104.024 270.844 110.512 270.751 110.404C270.658 110.297 268.285 103.756 265.471 95.8753L260.354 81.5338L254.191 81.4533L248.004 81.3997V100.834Z" fill="#0E213F"/>
<path d="M210.465 90.4067C204.557 91.9079 200.859 95.9021 199.743 101.934C198.371 109.332 201.138 116.221 206.651 119.17C209.279 120.591 211.349 121.073 214.721 121.073C219.303 121.073 222.443 120.028 225.327 117.508C228.374 114.854 229.816 111.423 230.025 106.33C230.211 101.478 229.235 98.1806 226.653 95.0443C225.001 93.007 222.629 91.4522 219.978 90.6212C217.954 90.0046 212.535 89.8706 210.465 90.4067ZM216.884 96.1701C217.559 96.331 218.605 96.7599 219.187 97.1084C223.466 99.5746 224.42 107.858 220.978 112.361C218.792 115.256 213.605 116.007 210.279 113.916C208.883 113.058 208.116 112.04 207.325 110.083C206.79 108.769 206.72 108.287 206.72 105.526C206.72 102.765 206.79 102.282 207.325 100.969C208.162 98.9312 208.976 97.8858 210.395 97.0816C212.442 95.9557 214.652 95.634 216.884 96.1701Z" fill="#0E213F"/>
<path d="M309.662 90.2459C305.08 91.3718 301.428 94.1597 299.707 97.9126C298.614 100.245 298.242 102.255 298.242 105.526C298.242 110.324 299.242 113.38 301.731 116.248C303.429 118.205 305.173 119.385 307.778 120.323C309.336 120.859 309.964 120.939 313.593 120.939C317.36 120.913 317.802 120.859 319.523 120.189C324.082 118.446 326.873 115.364 328.176 110.673C328.641 108.984 328.734 108.072 328.734 105.66C328.734 103.89 328.594 102.094 328.385 101.156C327.175 95.9825 323.803 92.2564 318.826 90.648C317.198 90.1119 311.267 89.8706 309.662 90.2459ZM315.476 96.1434C318.058 96.7063 319.919 98.3415 321.012 100.969C321.547 102.282 321.617 102.765 321.617 105.526C321.617 108.287 321.547 108.769 321.012 110.11C320.314 111.825 319.058 113.326 317.686 114.104C315.546 115.283 312.453 115.417 309.964 114.452C308.359 113.836 306.359 111.504 305.778 109.547C305.15 107.483 305.173 103.515 305.801 101.531C307.15 97.3229 311.011 95.1783 315.476 96.1434Z" fill="#0E213F"/>
<path d="M346.457 90.3531C344.735 90.8356 342.479 92.176 341.316 93.4091L340.34 94.4545V92.6049V90.782H336.618H332.897V105.526V120.269H336.618H340.34V111.557C340.34 102.094 340.456 100.781 341.526 99.1189C343.433 96.0629 348.643 95.5268 351.201 98.1002C352.876 99.789 352.899 99.9231 352.899 110.672V120.269H356.737H360.574V110.27C360.574 104.614 360.458 99.5478 360.319 98.5559C359.714 94.2401 357.155 91.2645 353.178 90.2727C351.573 89.8974 347.992 89.9242 346.457 90.3531Z" fill="#0E213F"/>
<path d="M375.343 90.4335C372.832 91.0501 370.227 92.578 368.459 94.4813C366.017 97.1084 364.854 100.164 364.621 104.587C364.179 112.469 368.087 118.527 374.902 120.537C377.413 121.288 381.879 121.288 384.437 120.537C389.066 119.197 392.252 115.953 393.345 111.477L393.578 110.619H390.229H386.903L386.414 111.53C385.786 112.71 384.554 113.782 383.042 114.452C382.135 114.881 381.298 115.015 379.53 115.015C377.46 115.015 377.041 114.935 375.762 114.265C374.064 113.38 372.622 111.718 371.971 109.922C371.157 107.751 370.203 107.938 382.809 107.938H394.136L393.997 105.016C393.648 97.4032 390.089 92.3636 383.74 90.5139C381.507 89.8706 377.786 89.817 375.343 90.4335ZM382.623 96.4918C384.6 97.296 385.879 98.7167 386.74 101.022L387.089 102.041H379.414C375.204 102.041 371.738 101.96 371.738 101.826C371.738 101.719 372.041 101.022 372.436 100.272C373.878 97.3496 376.692 95.768 379.995 95.9825C380.902 96.0361 382.065 96.2774 382.623 96.4918Z" fill="#0E213F"/>
<path d="M395.346 93.2482C395.904 94.6154 398.555 100.995 401.253 107.402C403.951 113.809 406.161 119.197 406.161 119.385C406.161 119.545 405.277 121.904 404.184 124.612L402.23 129.518L405.858 129.598C407.859 129.625 409.58 129.571 409.673 129.464C409.882 129.223 425 91.1841 425 90.916C425 90.8356 423.256 90.8088 421.116 90.8356L417.208 90.916L413.603 100.486C411.626 105.767 409.929 110.083 409.859 110.083C409.766 110.083 408.045 105.767 405.998 100.486L402.3 90.916L398.323 90.8356L394.322 90.782L395.346 93.2482Z" fill="#0E213F"/>
<path d="M45.9471 57.6864V52.036C45.9471 50.9314 46.8425 50.036 47.9471 50.036H103.779C104.884 50.036 105.779 50.9314 105.779 52.036V57.6864C105.779 58.7909 104.884 59.6864 103.779 59.6864H47.9471C46.8425 59.6864 45.9471 58.7909 45.9471 57.6864Z" fill="#23D893"/>
<path d="M36.0042 74.9766V69.5273C36.0042 68.4227 36.8996 67.5273 38.0041 67.5273H93.8363C94.9408 67.5273 95.8363 68.4227 95.8363 69.5273V74.9766C95.8363 76.0812 94.9408 76.9766 93.8363 76.9766H38.0042C36.8996 76.9766 36.0042 76.0812 36.0042 74.9766Z" fill="#23D893"/>
<path d="M45.7726 92.4679V86.8175C45.7726 85.713 46.6681 84.8175 47.7726 84.8175H103.605C104.709 84.8175 105.605 85.713 105.605 86.8175V92.4679C105.605 93.5725 104.709 94.4679 103.605 94.4679H47.7726C46.6681 94.4679 45.7726 93.5725 45.7726 92.4679Z" fill="#23D893"/>
</svg>
