<?xml version="1.0" standalone="no"?>
<!DOCTYPE svg PUBLIC "-//W3C//DTD SVG 20010904//EN"
 "http://www.w3.org/TR/2001/REC-SVG-20010904/DTD/svg10.dtd">
<svg version="1.0" xmlns="http://www.w3.org/2000/svg"
 width="1336.000000pt" height="1276.000000pt" viewBox="0 0 1336.000000 1276.000000"
 preserveAspectRatio="xMidYMid meet">

<g transform="translate(0.000000,1276.000000) scale(0.100000,-0.100000)"
fill="#000000" stroke="none">
<path d="M6525 11563 c-33 -2 -127 -10 -210 -18 -1043 -108 -1828 -537 -2258
-1235 -123 -200 -245 -508 -301 -763 -103 -460 -107 -1030 -10 -1492 225
-1065 1001 -1775 2204 -2015 426 -85 975 -98 1445 -34 530 72 978 232 1354
485 344 230 606 525 790 889 98 194 144 315 138 364 -7 47 -48 92 -97 107 -22
7 -146 9 -335 7 -366 -4 -341 6 -405 -155 -278 -704 -814 -1126 -1590 -1253
-380 -62 -837 -44 -1190 45 -811 206 -1337 770 -1510 1619 -37 181 -51 319
-57 561 -13 523 64 933 247 1311 136 284 307 502 533 678 296 231 633 364
1092 433 186 27 639 25 835 -6 549 -84 960 -292 1268 -641 147 -167 289 -403
372 -620 21 -55 44 -96 66 -117 l34 -33 331 0 331 0 33 33 c51 51 54 91 15
196 -80 216 -230 477 -383 666 -144 179 -385 388 -597 520 -553 342 -1322 510
-2145 468z"/>
<path d="M4510 4921 c-52 -27 -73 -62 -78 -128 -3 -48 0 -64 20 -93 32 -48 80
-70 152 -70 115 0 172 59 164 168 -5 69 -28 104 -85 128 -46 20 -132 18 -173
-5z"/>
<path d="M1782 4879 c-277 -36 -497 -179 -601 -391 -65 -132 -76 -188 -76
-378 0 -143 3 -176 23 -245 68 -235 233 -401 480 -484 133 -45 346 -62 497
-41 214 31 365 100 490 226 96 96 155 209 189 367 l6 27 -183 0 -184 0 -13
-42 c-19 -65 -54 -128 -98 -179 -101 -114 -304 -165 -494 -124 -95 20 -150 46
-209 101 -94 88 -137 193 -146 349 -15 268 88 455 289 525 88 30 240 37 332
16 167 -39 279 -143 326 -303 l13 -43 184 0 183 0 -6 28 c-57 259 -200 434
-432 528 -161 65 -374 89 -570 63z"/>
<path d="M5950 4621 l0 -239 -32 30 c-87 81 -200 118 -363 118 -198 0 -322
-47 -440 -165 -113 -113 -165 -250 -165 -432 1 -241 103 -430 287 -525 95 -50
162 -68 278 -74 163 -10 296 28 393 111 l42 37 0 -61 0 -61 170 0 170 0 0 750
0 750 -170 0 -170 0 0 -239z m-158 -348 c66 -30 133 -95 165 -162 26 -52 28
-65 28 -176 0 -103 -3 -127 -22 -168 -36 -78 -79 -124 -146 -157 -155 -76
-340 -56 -450 49 -76 72 -115 195 -102 321 17 154 91 257 218 302 73 26 242
21 309 -9z"/>
<path d="M10370 4619 l0 -241 -40 35 c-49 45 -122 83 -197 102 -75 20 -260 20
-338 0 -204 -52 -357 -203 -410 -405 -23 -87 -24 -263 -1 -350 56 -218 215
-369 438 -414 194 -40 400 3 511 107 l37 35 0 -64 0 -64 165 0 165 0 0 750 0
750 -165 0 -165 0 0 -241z m-147 -357 c39 -20 80 -50 102 -74 92 -108 110
-309 40 -448 -64 -126 -225 -196 -392 -170 -183 29 -280 140 -291 332 -11 196
63 324 221 380 40 14 74 18 153 16 90 -3 107 -7 167 -36z"/>
<path d="M6885 4516 c-133 -31 -209 -70 -274 -141 -44 -47 -75 -109 -87 -170
l-6 -35 155 0 155 0 19 38 c13 26 34 44 69 62 45 23 60 25 184 25 125 0 139
-2 185 -25 61 -31 95 -89 95 -161 l0 -47 -247 -5 c-319 -7 -438 -32 -548 -115
-73 -56 -108 -128 -113 -240 -2 -48 1 -105 7 -128 26 -98 114 -179 236 -217
58 -18 93 -22 205 -21 184 0 304 34 413 117 l47 37 0 -65 0 -65 165 0 166 0
-3 438 -3 437 -28 57 c-49 99 -150 173 -292 213 -83 24 -414 31 -500 11z m473
-662 c20 -6 22 -12 22 -83 l0 -77 -42 -41 c-49 -46 -110 -80 -183 -99 -60 -17
-195 -18 -249 -3 -88 25 -127 110 -86 194 26 54 91 90 190 103 75 11 314 15
348 6z"/>
<path d="M8550 4514 c-82 -22 -159 -63 -212 -112 l-48 -45 0 77 0 76 -165 0
-165 0 0 -575 0 -575 165 0 165 0 0 348 c0 405 4 430 75 498 60 58 123 78 234
72 119 -6 179 -39 224 -123 21 -39 22 -53 25 -417 l3 -378 165 0 165 0 -3 443
-3 442 -27 57 c-50 108 -140 181 -263 213 -75 19 -260 19 -335 -1z"/>
<path d="M11345 4509 c-158 -39 -299 -132 -371 -245 -19 -29 -46 -88 -60 -131
-23 -66 -27 -95 -27 -193 0 -131 17 -211 66 -303 106 -201 372 -322 666 -304
317 20 541 180 606 432 20 79 20 258 -1 338 -53 205 -213 351 -446 407 -114
27 -320 27 -433 -1z m393 -238 c33 -15 71 -44 102 -78 69 -75 94 -157 88 -288
-3 -83 -8 -102 -38 -161 -61 -119 -168 -178 -325 -178 -156 0 -264 59 -324
176 -29 58 -34 79 -39 160 -10 195 65 324 221 380 76 27 241 21 315 -11z"/>
<path d="M2972 4068 l3 -443 29 -62 c33 -73 113 -154 181 -184 198 -88 459
-55 621 77 l54 44 0 -70 0 -70 165 0 165 0 0 575 0 575 -165 0 -164 0 -3 -372
c-3 -360 -4 -374 -25 -413 -48 -89 -134 -137 -248 -139 -127 -2 -211 40 -258
127 -21 41 -22 51 -25 420 l-3 377 -165 0 -165 0 3 -442z"/>
<path d="M4440 3935 l0 -575 165 0 165 0 0 575 0 575 -165 0 -165 0 0 -575z"/>
<path d="M2070 2759 l0 -230 -42 34 c-97 79 -201 111 -353 110 -231 -1 -415
-103 -508 -281 -48 -92 -67 -175 -67 -302 0 -179 48 -310 154 -416 198 -198
584 -221 776 -47 l40 35 0 -61 0 -61 160 0 160 0 0 725 0 725 -160 0 -160 0 0
-231z m-188 -329 c121 -37 196 -130 219 -269 29 -174 -41 -325 -180 -390 -50
-23 -68 -26 -171 -26 -131 0 -176 15 -247 79 -149 134 -131 455 31 564 95 64
227 80 348 42z"/>
<path d="M4660 2265 l0 -725 170 0 170 0 2 549 3 548 232 -546 232 -546 163
-3 163 -2 235 552 235 553 3 -553 2 -552 170 0 170 0 0 725 0 725 -263 0 -263
0 -225 -544 c-123 -300 -227 -542 -230 -538 -3 4 -104 249 -225 544 l-219 537
-262 1 -263 0 0 -725z"/>
<path d="M3114 2670 c-162 -20 -318 -93 -406 -189 -95 -104 -138 -224 -138
-386 0 -181 47 -302 160 -408 133 -126 311 -184 535 -174 200 9 353 67 463
176 108 106 152 225 152 406 0 180 -40 287 -149 396 -137 138 -380 208 -617
179z m289 -258 c114 -56 168 -147 175 -294 8 -166 -52 -284 -176 -345 -53 -26
-66 -28 -177 -28 -111 0 -124 2 -177 28 -104 51 -164 152 -175 292 -11 137 49
276 142 331 75 43 121 54 226 51 85 -2 103 -6 162 -35z"/>
<path d="M7354 2670 c-274 -34 -469 -188 -529 -416 -18 -68 -20 -230 -4 -306
58 -279 332 -452 689 -435 197 10 351 69 459 177 106 107 151 226 151 402 0
179 -42 291 -149 399 -137 138 -380 208 -617 179z m289 -258 c74 -37 109 -72
146 -152 23 -49 26 -68 26 -165 0 -100 -3 -116 -29 -173 -55 -120 -144 -173
-297 -180 -115 -5 -187 12 -251 61 -177 135 -166 485 19 594 73 42 120 53 224
50 85 -2 103 -6 162 -35z"/>
<path d="M8945 2670 c-114 -16 -211 -59 -286 -127 l-39 -35 0 71 0 71 -160 0
-160 0 0 -555 0 -555 160 0 160 0 0 336 c0 211 4 351 11 379 14 54 68 119 123
147 52 27 177 36 243 17 61 -17 137 -89 152 -144 7 -25 11 -167 11 -387 l0
-348 160 0 161 0 -3 428 -3 427 -26 56 c-65 139 -185 209 -379 223 -36 2 -92
1 -125 -4z"/>
<path d="M10198 2670 c-206 -25 -392 -138 -471 -287 -62 -116 -83 -291 -52
-436 42 -199 198 -351 425 -413 91 -25 329 -25 419 0 166 45 283 137 346 267
19 40 35 79 35 86 0 10 -33 13 -142 13 l-143 -1 -27 -39 c-53 -77 -155 -120
-283 -120 -45 0 -104 7 -133 15 -95 29 -178 112 -207 208 l-14 47 484 0 c558
0 502 -13 490 113 -25 277 -176 462 -429 527 -89 22 -211 31 -298 20z m222
-236 c89 -26 141 -69 183 -151 35 -66 51 -63 -308 -63 -220 0 -325 3 -325 10
0 42 90 149 152 181 79 40 206 50 298 23z"/>
<path d="M10940 2642 c0 -5 115 -246 255 -536 l256 -528 -82 -176 c-45 -98
-84 -183 -86 -190 -4 -10 29 -12 157 -10 l162 3 329 720 c181 396 329 721 329
722 0 2 -75 3 -167 3 l-168 0 -161 -369 -160 -370 -165 370 -164 369 -167 0
c-93 0 -168 -4 -168 -8z"/>
</g>
</svg>
