<svg width="98" height="105" viewBox="0 0 98 105" fill="none" xmlns="http://www.w3.org/2000/svg">
<ellipse cx="49.1994" cy="13.5055" rx="12.1844" ry="12.7609" fill="#272727"/>
<ellipse cx="13.2269" cy="92.1975" rx="12.1844" ry="12.7609" fill="#272727"/>
<ellipse cx="85.1731" cy="13.5055" rx="12.1844" ry="12.7609" fill="#272727"/>
<path fill-rule="evenodd" clip-rule="evenodd" d="M21.7744 4.4533C26.6227 9.69723 26.4939 18.0645 21.4869 23.1421C21.3154 23.3159 21.1405 23.4837 20.9623 23.6453C20.9578 23.6495 20.9569 23.6566 20.9604 23.6617V23.6617C20.9639 23.6668 20.963 23.6739 20.9586 23.6781C14.2174 30.1011 17.2531 37.5431 22.977 43.7531V43.7531C22.9684 43.7459 22.9576 43.7584 22.9648 43.7671C27.1794 48.8491 26.9072 56.5555 22.2343 61.2943C17.3999 66.1968 9.68613 66.0666 5.0051 61.0035C0.736067 56.386 0.463718 49.2604 4.11579 44.3232C7.86739 38.4325 8.48979 30.3493 3.14401 22.3037C3.14088 22.2989 3.14142 22.2924 3.14537 22.2884V22.2884C3.14964 22.2841 3.14991 22.277 3.14604 22.2723C-1.19058 17.0085 -0.899746 9.04991 3.92996 4.15213C8.93699 -0.925459 16.9262 -0.790621 21.7744 4.4533Z" fill="#272727"/>
<path fill-rule="evenodd" clip-rule="evenodd" d="M5.32835 43.3216C10.9674 38.3782 19.2029 38.9553 23.7228 44.6106C23.9614 44.9091 24.1848 45.2158 24.3932 45.5296C29.0496 51.0862 34.9176 50.4882 40.2922 47.0116C40.9582 46.5808 41.539 46.0238 42.1392 45.4976V45.4976C46.9077 41.3173 54.1227 42.1193 58.2545 47.2889C62.3862 52.4585 61.87 60.0381 57.1015 64.2184C54.5609 66.4456 51.3258 67.2585 48.2326 66.7501C43.3542 65.9482 39.8087 61.2088 34.9307 60.4047C31.4897 59.8375 27.6655 60.387 23.6767 62.372C22.9504 62.7334 22.3134 63.2607 21.6965 63.8015V63.8015C16.0575 68.7449 7.82199 68.1678 3.30205 62.5125C-1.2179 56.8571 -0.31069 48.2651 5.32835 43.3216Z" fill="#272727"/>
</svg>
