<svg width="71" height="26" viewBox="0 0 71 26" fill="none" xmlns="http://www.w3.org/2000/svg">
<path d="M0.987305 9.89V0.853638H1.62204L6.65759 9.58879H6.38677L11.3885 0.853638H12.0232V9.89H11.4646V1.20777H11.7693L6.82685 9.78417H6.18365L1.22427 1.20777H1.54587V9.89H0.987305Z" fill="black"/>
<path d="M13.9129 9.89V0.853638H14.449V9.89H13.9129Z" fill="black"/>
<path d="M21.1612 9.89C20.4518 9.89 19.8028 9.81251 19.2142 9.65754C18.6256 9.50256 18.1159 9.25221 17.6849 8.90649C17.2593 8.5568 16.9282 8.09386 16.6917 7.51766C16.4605 6.94146 16.3449 6.23015 16.3449 5.38374C16.3449 4.29095 16.5446 3.41275 16.944 2.74913C17.3433 2.08551 17.9135 1.60468 18.6545 1.30665C19.3955 1.00464 20.2731 0.853638 21.2874 0.853638C21.7393 0.853638 22.1702 0.87748 22.5801 0.925165C22.9953 0.968877 23.4052 1.03842 23.8099 1.13379V1.53911C23.3789 1.43182 22.9533 1.35632 22.5328 1.31261C22.1124 1.2689 21.6841 1.24704 21.248 1.24704C20.3388 1.24704 19.561 1.37818 18.9146 1.64044C18.2683 1.89874 17.7716 2.32989 17.4248 2.93391C17.0832 3.53395 16.9124 4.34261 16.9124 5.3599C16.9124 6.41692 17.0885 7.24744 17.4406 7.85145C17.7927 8.45149 18.2867 8.87669 18.9225 9.12704C19.5584 9.37341 20.3046 9.4966 21.1612 9.4966C21.6132 9.4966 22.0441 9.47077 22.454 9.41911C22.8692 9.36348 23.3211 9.27009 23.8099 9.13896V9.54428C23.4157 9.65157 23.0006 9.73502 22.5644 9.79463C22.1282 9.85821 21.6605 9.89 21.1612 9.89Z" fill="black"/>
<path d="M25.6999 9.89V1.05324C25.9679 1.01695 26.2412 0.984687 26.5197 0.956461C26.8035 0.924203 27.1057 0.900009 27.4262 0.88388C27.7521 0.863718 28.1094 0.853638 28.4983 0.853638C29.954 0.853638 31.0287 1.05727 31.7224 1.46453C32.4213 1.86776 32.7708 2.50486 32.7708 3.37584C32.7708 3.94439 32.5973 4.4202 32.2505 4.80327C31.9089 5.1823 31.3913 5.46859 30.6976 5.66214C30.0039 5.85569 29.1289 5.95247 28.0726 5.95247C27.6995 5.95247 27.3737 5.94642 27.0952 5.93432C26.8166 5.92223 26.5302 5.90811 26.2359 5.89198V9.89H25.6999ZM32.9521 9.89L28.6244 5.63795H29.2945L33.6379 9.89H32.9521ZM28.0569 5.55932C29.5441 5.55932 30.6109 5.37988 31.2573 5.02101C31.9089 4.6581 32.2347 4.11374 32.2347 3.38793C32.2347 2.87986 32.106 2.46857 31.8485 2.15405C31.591 1.83953 31.1863 1.61171 30.6345 1.47058C30.0827 1.32542 29.3602 1.25283 28.4668 1.25283C27.9991 1.25283 27.597 1.26493 27.2607 1.28913C26.9244 1.31332 26.5828 1.34961 26.2359 1.398V5.49884C26.4672 5.51093 26.6721 5.52303 26.8508 5.53513C27.0347 5.54319 27.2187 5.54924 27.4026 5.55327C27.5918 5.5573 27.8099 5.55932 28.0569 5.55932Z" fill="black"/>
<path d="M39.9905 9.89C39.1023 9.89 38.3219 9.739 37.6493 9.43699C36.9819 9.13498 36.4616 8.65217 36.0885 7.98855C35.7154 7.32493 35.5288 6.45269 35.5288 5.37182C35.5288 4.28698 35.7154 3.41275 36.0885 2.74913C36.4669 2.08551 36.9898 1.60468 37.6572 1.30665C38.3298 1.00464 39.1076 0.853638 39.9905 0.853638C40.8839 0.853638 41.6642 1.00464 42.3317 1.30665C42.9991 1.60468 43.5193 2.08551 43.8925 2.74913C44.2656 3.41275 44.4521 4.28698 44.4521 5.37182C44.4521 6.45269 44.2629 7.32493 43.8846 7.98855C43.5114 8.65217 42.9886 9.13498 42.3159 9.43699C41.6485 9.739 40.8733 9.89 39.9905 9.89ZM39.9905 9.49064C40.763 9.49064 41.4409 9.36149 42.0242 9.10319C42.6128 8.8449 43.07 8.41772 43.3958 7.82165C43.7217 7.22161 43.8846 6.41295 43.8846 5.39566C43.8846 4.36248 43.7217 3.54388 43.3958 2.93987C43.07 2.33586 42.6128 1.9047 42.0242 1.64641C41.4409 1.38414 40.763 1.253 39.9905 1.253C39.218 1.253 38.54 1.38215 37.9567 1.64044C37.3734 1.89874 36.9162 2.32791 36.5851 2.92795C36.2593 3.52401 36.0964 4.33069 36.0964 5.34798C36.0964 6.38116 36.2593 7.19976 36.5851 7.80377C36.9162 8.40778 37.3734 8.84093 37.9567 9.10319C38.54 9.36149 39.218 9.49064 39.9905 9.49064Z" fill="black"/>
<path d="M0.987305 25.8536L5.70131 16.8172H7.32746L12.0232 25.8536H10.3971L6.50525 18.1727L2.59518 25.8536H0.987305ZM3.14332 23.53L3.58184 22.6522H9.37386L9.81237 23.53H3.14332Z" fill="black"/>
<path d="M19.1589 25.8536C17.9524 25.8536 16.9056 25.6664 16.0185 25.292C15.1432 24.9092 14.469 24.3808 13.9958 23.7069C13.5227 23.0245 13.2861 22.2341 13.2861 21.3354C13.2861 20.4368 13.5227 19.6505 13.9958 18.9765C14.469 18.2942 15.1432 17.7658 16.0185 17.3914C16.9056 17.0086 17.9524 16.8172 19.1589 16.8172C20.5783 16.8172 21.7316 17.0544 22.6187 17.5287C23.5059 18.003 24.0736 18.6728 24.322 19.5381H22.672C22.4827 18.9973 22.0983 18.5646 21.5187 18.2401C20.9391 17.9073 20.1525 17.7409 19.1589 17.7409C18.2718 17.7409 17.5029 17.8865 16.8524 18.1777C16.2018 18.4606 15.6991 18.8725 15.3443 19.4133C14.9894 19.9459 14.812 20.5866 14.812 21.3354C14.812 22.0843 14.9894 22.7292 15.3443 23.27C15.6991 23.8025 16.2018 24.2144 16.8524 24.5056C17.5029 24.7886 18.2718 24.93 19.1589 24.93C20.1525 24.93 20.9391 24.7719 21.5187 24.4557C22.0983 24.1312 22.4827 23.7027 22.672 23.1702H24.322C24.0736 24.0106 23.5059 24.6679 22.6187 25.1422C21.7316 25.6165 20.5783 25.8536 19.1589 25.8536Z" fill="black"/>
<path d="M29.1257 25.8536V17.708H25.5813V16.8172H34.0947V17.708H30.5503V25.8536H29.1257Z" fill="black"/>
<path d="M35.3562 25.8536V16.8172H36.6174V25.8536H35.3562Z" fill="black"/>
<path d="M43.3898 25.8536C42.2954 25.8536 41.3311 25.6664 40.4967 25.292C39.6732 24.9092 39.0285 24.3808 38.5626 23.7069C38.1075 23.0245 37.88 22.2341 37.88 21.3354C37.88 20.4451 38.1075 19.663 38.5626 18.989C39.0285 18.3067 39.6732 17.7741 40.4967 17.3914C41.3311 17.0086 42.2954 16.8172 43.3898 16.8172C44.5058 16.8172 45.4756 17.0086 46.2991 17.3914C47.1226 17.7741 47.7619 18.3067 48.217 18.989C48.6829 19.663 48.9159 20.4451 48.9159 21.3354C48.9159 22.2341 48.6829 23.0245 48.217 23.7069C47.7619 24.3808 47.1226 24.9092 46.2991 25.292C45.4756 25.6664 44.5058 25.8536 43.3898 25.8536ZM43.3898 24.93C44.2133 24.93 44.9338 24.7886 45.5515 24.5056C46.1799 24.2144 46.6621 23.8025 46.998 23.27C47.3447 22.7292 47.5181 22.0843 47.5181 21.3354C47.5181 20.5866 47.3447 19.9459 46.998 19.4133C46.6621 18.8725 46.1799 18.4606 45.5515 18.1777C44.9338 17.8948 44.2133 17.7533 43.3898 17.7533C42.5771 17.7533 41.8566 17.8948 41.2281 18.1777C40.6105 18.4606 40.1283 18.8725 39.7816 19.4133C39.4457 19.9459 39.2777 20.5866 39.2777 21.3354C39.2777 22.0843 39.4457 22.7292 39.7816 23.27C40.1283 23.8025 40.6105 24.2144 41.2281 24.5056C41.8566 24.7886 42.5771 24.93 43.3898 24.93Z" fill="black"/>
<path d="M50.175 25.8536V16.8172H51.8885L59.4974 24.0592V16.8172H61.2109V25.8536H59.4974L51.8885 18.6116V25.8536H50.175Z" fill="black"/>
<path d="M66.8787 25.8536C65.985 25.8536 65.2073 25.7371 64.5457 25.5041C63.8842 25.2712 63.3735 24.9466 63.0137 24.5306C62.6539 24.1146 62.474 23.632 62.474 23.0828H64.006C64.006 23.4239 64.1163 23.7401 64.3368 24.0314C64.5573 24.3143 64.8765 24.5431 65.2944 24.7178C65.7238 24.8842 66.2519 24.9675 66.8787 24.9675C67.4242 24.9675 67.8884 24.905 68.2714 24.7802C68.6661 24.6471 68.962 24.4682 69.1593 24.2435C69.3683 24.0189 69.4727 23.7651 69.4727 23.4822C69.4727 23.141 69.3683 22.8665 69.1593 22.6584C68.962 22.4421 68.6893 22.2674 68.3411 22.1342C67.9929 22.0011 67.5867 21.8846 67.1224 21.7848C66.6697 21.6766 66.1939 21.5643 65.6948 21.4478C64.7314 21.2148 64.0234 20.9236 63.5708 20.5741C63.1181 20.2246 62.8918 19.7711 62.8918 19.2136C62.8918 18.7393 63.0427 18.3233 63.3445 17.9655C63.6578 17.6077 64.0989 17.329 64.6676 17.1293C65.2479 16.9213 65.9327 16.8172 66.722 16.8172C67.4996 16.8172 68.1728 16.9213 68.7415 17.1293C69.3218 17.3373 69.7745 17.6244 70.0995 17.9905C70.4245 18.3483 70.587 18.7643 70.587 19.2386H69.0549C69.0549 18.9973 68.9678 18.7602 68.7937 18.5272C68.6196 18.2942 68.3527 18.1028 67.9929 17.953C67.6447 17.7949 67.2036 17.7159 66.6697 17.7159C66.2287 17.7076 65.8341 17.7617 65.4859 17.8781C65.1493 17.9863 64.8823 18.1444 64.685 18.3524C64.4993 18.5605 64.4065 18.8142 64.4065 19.1138C64.4065 19.3967 64.4877 19.6255 64.6502 19.8002C64.8243 19.975 65.068 20.1248 65.3814 20.2496C65.7064 20.3661 66.0836 20.4742 66.513 20.5741C66.9425 20.6739 67.4184 20.7863 67.9407 20.9111C68.5326 21.0525 69.0549 21.2273 69.5075 21.4353C69.9718 21.635 70.3316 21.8929 70.587 22.2091C70.8539 22.5253 70.9874 22.9289 70.9874 23.4198C70.9874 23.8358 70.8307 24.2311 70.5173 24.6055C70.2155 24.9716 69.7629 25.2712 69.1593 25.5041C68.5558 25.7371 67.7956 25.8536 66.8787 25.8536Z" fill="black"/>
</svg>
