<svg width="90" height="97" viewBox="0 0 90 97" fill="none" xmlns="http://www.w3.org/2000/svg">
<ellipse cx="45.2124" cy="12.988" rx="11.1691" ry="11.7168" fill="#D1E876"/>
<ellipse cx="12.2379" cy="85.2416" rx="11.1691" ry="11.7168" fill="#D1E876"/>
<ellipse cx="78.1885" cy="12.988" rx="11.1691" ry="11.7168" fill="#D1E876"/>
<path fill-rule="evenodd" clip-rule="evenodd" d="M20.0729 4.67663C24.5171 9.49151 24.399 17.1742 19.8093 21.8363C19.6522 21.9959 19.4919 22.1498 19.3287 22.2982C19.3244 22.302 19.3237 22.3086 19.3269 22.3133V22.3133C19.3301 22.318 19.3293 22.3246 19.3252 22.3285C13.1456 28.2261 15.9287 35.0594 21.1759 40.7613V40.7613C21.168 40.7547 21.1581 40.7662 21.1647 40.7742C25.0277 45.4404 24.7781 52.516 20.4947 56.867C16.0632 61.3684 8.99225 61.2488 4.7013 56.6C0.788489 52.3608 0.538435 45.8192 3.88492 41.2861C7.32488 35.8771 7.89604 28.4545 2.99515 21.0663C2.99232 21.0621 2.9928 21.0562 2.99637 21.0525V21.0525C3.00024 21.0486 3.00049 21.0422 2.99698 21.0379C-0.978421 16.2047 -0.711883 8.89721 3.71541 4.4001C8.30518 -0.26205 15.6287 -0.138243 20.0729 4.67663Z" fill="#D1E876"/>
<path fill-rule="evenodd" clip-rule="evenodd" d="M4.9975 40.3647C10.1666 35.8257 17.7158 36.3556 21.8591 41.5483C22.0782 41.8229 22.2834 42.105 22.4747 42.3938C26.7429 47.4939 32.1211 46.9447 37.0473 43.753C37.6578 43.3574 38.1903 42.8459 38.7407 42.3626V42.3626C43.1118 38.5244 49.7256 39.2608 53.513 44.0074C57.3004 48.754 56.8272 55.7135 52.4561 59.5517C50.1257 61.5981 47.1577 62.3441 44.3205 61.8753C39.8531 61.1372 36.6072 56.7914 32.1401 56.0514C28.9841 55.5286 25.4761 56.0325 21.817 57.8563C21.1512 58.1882 20.5672 58.6723 20.0017 59.169V59.169C14.8325 63.708 7.28335 63.1781 3.14007 57.9854C-1.00322 52.7928 -0.171614 44.9037 4.9975 40.3647Z" fill="#D1E876"/>
</svg>
